<svg id="globe" xmlns="http://www.w3.org/2000/svg" width="31" height="31" viewBox="0 0 31 31">
  <path id="Path_203" data-name="Path 203" d="M1.973,14.531H6.8a26.556,26.556,0,0,1,.6-4.844H3.243a13.481,13.481,0,0,0-1.271,4.844Zm2.4-6.781H7.925a17.953,17.953,0,0,1,1.24-2.982A12.981,12.981,0,0,1,10.321,2.96,13.609,13.609,0,0,0,4.369,7.75ZM15.5,0A15.5,15.5,0,1,0,31,15.5,15.5,15.5,0,0,0,15.5,0Zm-.969,2.086c-1.3.4-2.587,1.589-3.656,3.594A15.427,15.427,0,0,0,9.968,7.75h4.563Zm0,7.6H9.391a24.219,24.219,0,0,0-.655,4.844h5.8Zm1.938,4.844V9.688h5.14a24.11,24.11,0,0,1,.655,4.844Zm-1.937,1.938H8.738a24.219,24.219,0,0,0,.653,4.844h5.141Zm1.938,4.844V16.469h5.794a24.209,24.209,0,0,1-.653,4.844ZM14.531,23.25H9.968a15.379,15.379,0,0,0,.907,2.069,6.831,6.831,0,0,0,3.656,3.594Zm-4.21,4.789a12.972,12.972,0,0,1-1.156-1.807,17.955,17.955,0,0,1-1.24-2.982H4.369a13.609,13.609,0,0,0,5.952,4.789ZM3.243,21.313H7.4a26.449,26.449,0,0,1-.6-4.844H1.972a13.436,13.436,0,0,0,1.271,4.844Zm17.436,6.727a13.609,13.609,0,0,0,5.952-4.789H23.077a17.976,17.976,0,0,1-1.242,2.982,12.958,12.958,0,0,1-1.156,1.807Zm.353-4.789H16.469v5.664c1.3-.4,2.587-1.589,3.656-3.594a15.461,15.461,0,0,0,.907-2.069ZM23.6,21.313h4.158a13.419,13.419,0,0,0,1.271-4.844H24.2a26.447,26.447,0,0,1-.6,4.844Zm.6-6.781h4.825a13.483,13.483,0,0,0-1.271-4.844H23.6a26.631,26.631,0,0,1,.6,4.844ZM23.075,7.75a17.974,17.974,0,0,0-1.24-2.982,12.966,12.966,0,0,0-1.156-1.807A13.609,13.609,0,0,1,26.631,7.75H23.077Zm-2.044,0H16.469V2.086c1.3.4,2.587,1.589,3.656,3.594a15.427,15.427,0,0,1,.907,2.069Z" fill="#343434" fill-rule="evenodd"/>
</svg>
