<?xml version="1.0" encoding="utf-8"?>
<!-- Generator: Adobe Illustrator 27.0.1, SVG Export Plug-In . SVG Version: 6.00 Build 0)  -->
<svg version="1.1" id="Layer_1" xmlns="http://www.w3.org/2000/svg" xmlns:xlink="http://www.w3.org/1999/xlink" x="0px" y="0px"
	 viewBox="0 0 41.41 40.66" style="enable-background:new 0 0 41.41 40.66;" xml:space="preserve">
<style type="text/css">
	.st0{clip-path:url(#SVGID_00000127010494426418900600000001744638415486702471_);}
	.st1{fill:url(#Rectangle_1423_00000150806636933392411930000000580580963916964523_);}
</style>
<g id="Illustration_17_00000181800114020427323690000001132877070865772675_" transform="translate(-100.2 -30.56)">
	<g id="Group_606" transform="translate(100.2 30.56)">
		<g id="Group_605">
			<g>
				<defs>
					<path id="SVGID_1_" d="M35.72,39.02c-1.05-0.22-2.06-0.6-2.99-1.15c-1.7-1.01-3.08-2.47-4-4.22c-0.51-0.97-0.87-2.01-1.08-3.09
						c-0.06-0.31-0.11-0.63-0.14-0.94v-1.81c0.53,0.01,1.06,0.05,1.61,0.12c1.69,0.24,3.33,0.77,4.85,1.58
						c0.14,0.08,0.3,0.17,0.53,0.32c1.68,1.24,3.03,2.88,3.93,4.77l0.05,0.1c0.37,0.66,0.67,1.36,0.9,2.08
						c0.1,0.33,0.18,0.67,0.23,1.02c0.04,0.24,0.06,0.48,0.08,0.73c-0.01,0.18-0.01,0.35-0.02,0.49c-0.03,0.01-0.05,0.01-0.09,0.02
						c-0.23,0.04-0.46,0.09-0.69,0.12h-2.49L35.72,39.02 M1.73,32.14V14.86c0.42,1.33,0.96,2.63,1.61,3.87
						c0.32,0.62,0.62,1.14,0.83,1.46c1.03,1.7,2.27,3.26,3.69,4.64c1.74,1.49,3.87,2.44,6.14,2.77v11.39
						c-0.69,0.14-1.4,0.21-2.1,0.2C7.37,39.18,3.33,36.38,1.73,32.14 M17.9,26.77c-0.81-0.06-1.77-0.14-2.77-0.27
						c-0.38-0.05-0.76-0.12-1.15-0.19c-1.95-0.29-3.77-1.13-5.27-2.4c-1.34-1.3-2.51-2.77-3.47-4.37c-0.18-0.3-0.47-0.79-0.78-1.38
						c-0.98-1.86-1.69-3.86-2.1-5.92c-0.31-1.67-0.49-3.35-0.51-5.05c1.14,1.94,2.72,3.57,4.63,4.76c1.93,1.18,4.09,1.95,6.34,2.24
						c0.4,0.06,0.79,0.12,1.19,0.17c0.4,0.05,0.76,0.08,1.15,0.11c2.47,0.11,4.94,0.06,7.41-0.15h0.04c1.26-0.1,2.53-0.03,3.77,0.2
						c0.08,0.01,0.14,0.03,0.21,0.04c0.01,0,0.4,0.09,0.94,0.24c0.44,0.12,0.87,0.27,1.3,0.44c3.29,1.33,5.65,4.66,6.43,5.76
						L35.27,21c1.79,2.59,3.06,5.51,3.73,8.59c0.3,1.49,0.51,3,0.61,4.52c0-0.01-0.01-0.02-0.02-0.03l-0.05-0.1
						c-1-2.07-2.49-3.86-4.34-5.21c-0.26-0.17-0.45-0.28-0.6-0.36c-1.65-0.89-3.46-1.47-5.32-1.73c-0.58-0.07-1.17-0.12-1.76-0.13
						c-0.39-0.01-0.76-0.01-1.15,0c-0.87,0.02-1.75,0.08-2.64,0.14c-1.18,0.08-2.39,0.16-3.7,0.16
						C19.34,26.85,18.64,26.82,17.9,26.77 M13,12.93c-2.08-0.26-4.08-0.97-5.86-2.07c-1.8-1.12-3.29-2.68-4.32-4.52
						C2.42,5.61,2.13,4.84,1.95,4.04C1.79,3.29,1.72,2.52,1.73,1.75l0,0l0.16-0.03C2.12,1.67,2.34,1.63,2.58,1.6h2.49
						C5.3,1.63,5.53,1.66,5.75,1.72c1.05,0.22,2.06,0.6,2.99,1.15c1.7,1.01,3.08,2.47,4,4.22c0.51,0.97,0.88,2.02,1.08,3.1
						c0.05,0.31,0.11,0.62,0.14,0.94v1.94C13.65,13.04,13.33,12.98,13,12.93 M36.28,20.27l-0.01-0.01c-0.83-1.17-3.36-4.73-6.99-6.2
						c-0.58-0.23-1.17-0.42-1.77-0.58V1.77c0.69-0.14,1.4-0.21,2.1-0.2c4.52,0,8.56,2.81,10.14,7.04v18.9
						C38.98,24.93,37.81,22.49,36.28,20.27 M2.54,0.46H0.59v31.87c0.3,0.83,0.68,1.62,1.15,2.37c1.22,1.94,2.96,3.49,5.03,4.47
						c1.6,0.76,3.35,1.15,5.11,1.15h3.26V27.77c0.99,0.13,1.9,0.2,2.67,0.26c2,0.13,4,0.1,5.99-0.09c0.87-0.06,1.72-0.12,2.55-0.14
						v0.59c0,1.81,0.39,3.61,1.15,5.25c0.04,0.1,0.09,0.19,0.14,0.29c0.31,0.62,0.67,1.22,1.08,1.78c0.59,0.8,1.27,1.53,2.04,2.15
						c0.53,0.43,1.1,0.82,1.69,1.15c0.06,0.04,0.14,0.08,0.21,0.12c1.54,0.8,3.24,1.23,4.97,1.23c0.44,0,0.87-0.02,1.31-0.09h1.95
						V8.41c-0.3-0.83-0.68-1.62-1.15-2.37c-1.22-1.94-2.96-3.49-5.03-4.47c-1.6-0.76-3.35-1.15-5.11-1.15h-3.25v12.8
						c-1.27-0.22-2.56-0.28-3.85-0.18h-0.04c-2.43,0.21-4.88,0.26-7.32,0.14v-0.83c0-1.82-0.39-3.61-1.15-5.26
						c-0.04-0.1-0.1-0.19-0.14-0.29c-0.31-0.62-0.67-1.22-1.08-1.78c-0.59-0.8-1.27-1.53-2.04-2.15c-0.53-0.44-1.09-0.82-1.69-1.15
						C8.97,1.67,8.9,1.64,8.83,1.6C7.29,0.8,5.58,0.37,3.84,0.37C3.41,0.38,2.97,0.41,2.54,0.46"/>
				</defs>
				<clipPath id="SVGID_00000033342638449153393760000006095141943533559682_">
					<use xlink:href="#SVGID_1_"  style="overflow:visible;"/>
				</clipPath>
				<g id="Group_604" style="clip-path:url(#SVGID_00000033342638449153393760000006095141943533559682_);">
					
						<linearGradient id="Rectangle_1423_00000050624698524492214160000010892820309063676579_" gradientUnits="userSpaceOnUse" x1="-61.6978" y1="142.1746" x2="-61.6817" y2="142.1746" gradientTransform="matrix(37.6 0 0 -37.3 2842.4443 5323.4814)">
						<stop  offset="0" style="stop-color:#76B72A"/>
						<stop  offset="1" style="stop-color:#009439"/>
					</linearGradient>
					
						<rect id="Rectangle_1423" x="0.59" y="0.38" style="fill:url(#Rectangle_1423_00000050624698524492214160000010892820309063676579_);" width="40.31" height="39.99"/>
				</g>
			</g>
		</g>
	</g>
</g>
</svg>
