<svg id="layout-text-sidebar-reverse" xmlns="http://www.w3.org/2000/svg" width="12.719" height="12.719" viewBox="0 0 12.719 12.719">
  <path id="Path_235" data-name="Path 235" d="M1.59.795h9.539a.8.8,0,0,1,.795.795v9.539a.8.8,0,0,1-.795.795H1.59a.8.8,0,0,1-.795-.795V1.59A.8.8,0,0,1,1.59.795ZM11.129,0a1.59,1.59,0,0,1,1.59,1.59v9.539a1.59,1.59,0,0,1-1.59,1.59H1.59A1.59,1.59,0,0,1,0,11.129V1.59A1.59,1.59,0,0,1,1.59,0Z" transform="translate(0 0)" fill="#707070" fill-rule="evenodd"/>
  <path id="Path_236" data-name="Path 236" d="M9.795,13.379V2.25H9V13.379Zm6.36-9.142a.4.4,0,0,0-.4-.4H11.782a.4.4,0,0,0,0,.795h3.975A.4.4,0,0,0,16.155,4.237Zm0,2.385a.4.4,0,0,0-.4-.4H11.782a.4.4,0,0,0,0,.795h3.975A.4.4,0,0,0,16.155,6.622Zm0,2.385a.4.4,0,0,0-.4-.4H11.782a.4.4,0,0,0,0,.795h3.975A.4.4,0,0,0,16.155,9.007Zm0,2.385a.4.4,0,0,0-.4-.4H11.782a.4.4,0,1,0,0,.795h3.975A.4.4,0,0,0,16.155,11.392Z" transform="translate(-5.82 -1.455)" fill="#707070" fill-rule="evenodd"/>
</svg>
