<svg xmlns="http://www.w3.org/2000/svg" width="16.868" height="12.884" viewBox="0 0 16.868 12.884">
  <path id="pencil-square-o" d="M8.4,9.663,9.493,8.6,8.056,7.21l-1.1,1.061v.512h.908v.879H8.4Zm4.16-6.588a.2.2,0,0,0-.312.009l-3.309,3.2a.185.185,0,0,0-.009.3.2.2,0,0,0,.312-.009l3.309-3.2a.185.185,0,0,0,.009-.3Zm.756,5.435v1.739a2.5,2.5,0,0,1-.8,1.862,2.669,2.669,0,0,1-1.924.773H2.723A2.666,2.666,0,0,1,.8,12.111,2.5,2.5,0,0,1,0,10.248V2.635A2.5,2.5,0,0,1,.8.773,2.67,2.67,0,0,1,2.723,0H10.59A2.673,2.673,0,0,1,11.7.229a.28.28,0,0,1,.17.21A.28.28,0,0,1,11.781.7l-.463.448a.283.283,0,0,1-.3.073,1.728,1.728,0,0,0-.425-.055H2.723a1.481,1.481,0,0,0-1.068.43,1.387,1.387,0,0,0-.444,1.034v7.613a1.387,1.387,0,0,0,.444,1.034,1.481,1.481,0,0,0,1.068.43H10.59a1.481,1.481,0,0,0,1.068-.43,1.387,1.387,0,0,0,.444-1.034V9.1a.269.269,0,0,1,.085-.2l.605-.586a.291.291,0,0,1,.331-.064.266.266,0,0,1,.189.266Zm-.908-6.753,2.723,2.635L8.774,10.541H6.051V7.906Zm4.2,1.208-.87.842L13.01,1.171l.87-.842a.934.934,0,0,1,1.286,0L16.6,1.72a.834.834,0,0,1,.265.622A.834.834,0,0,1,16.6,2.965Z" fill="#707070"/>
</svg>
