<svg xmlns="http://www.w3.org/2000/svg" xmlns:xlink="http://www.w3.org/1999/xlink" width="30" height="30" viewBox="0 0 25.163 25.23">
  <defs>
    <filter id="Path_226" x="0" y="0" width="25.163" height="25.23" filterUnits="userSpaceOnUse">
      <feOffset dy="3" input="SourceAlpha"/>
      <feGaussianBlur stdDeviation="3" result="blur"/>
      <feFlood flood-opacity="0.161"/>
      <feComposite operator="in" in2="blur"/>
      <feComposite in="SourceGraphic"/>
    </filter>
  </defs>
  <g id="search" transform="translate(9 6)">
    <path id="Path_225" data-name="Path 225" d="M23.01,23.028a.547.547,0,0,1,.833,0l2.267,2.527a.711.711,0,0,1,0,.928.547.547,0,0,1-.833,0l-2.267-2.527a.711.711,0,0,1,0-.929Z" transform="translate(-17.398 -16.496)" fill="#343434" fill-rule="evenodd"/>
    <g transform="matrix(1, 0, 0, 1, -9, -6)" filter="url(#Path_226)">
      <path id="Path_226-2" data-name="Path 226" d="M3.581,6.674A3.059,3.059,0,1,0,.551,3.615,3.045,3.045,0,0,0,3.581,6.674ZM7.163,3.615A3.581,3.581,0,1,1,3.581,0,3.6,3.6,0,0,1,7.163,3.615Z" transform="translate(9 6)" fill="#343434" fill-rule="evenodd"/>
    </g>
  </g>
</svg>
